<?xml version="1.0" standalone="no"?>
<!DOCTYPE svg PUBLIC "-//W3C//DTD SVG 20010904//EN"
 "http://www.w3.org/TR/2001/REC-SVG-20010904/DTD/svg10.dtd">
<svg version="1.0" xmlns="http://www.w3.org/2000/svg"
 width="700.000000pt" height="700.000000pt" viewBox="0 0 700.000000 700.000000"
 preserveAspectRatio="xMidYMid meet">
<metadata>
Created by potrace 1.14, written by Peter Selinger 2001-2017
</metadata>
<g transform="translate(0.000000,700.000000) scale(0.100000,-0.100000)"
fill="#000000" stroke="none">
<path d="M3500 6701 l0 -299 -22 -6 c-13 -3 -91 -6 -175 -6 -339 0 -647 -72
-921 -215 -143 -75 -250 -153 -367 -270 -192 -190 -315 -417 -377 -690 -29
-132 -36 -432 -13 -581 32 -204 108 -393 215 -535 98 -131 292 -294 438 -368
23 -12 42 -25 42 -29 0 -4 -22 -22 -49 -40 -183 -124 -346 -345 -398 -542 -24
-87 -23 -271 0 -360 36 -134 120 -277 214 -361 152 -137 380 -230 638 -259 50
-5 244 -10 433 -10 l342 0 0 -665 0 -665 -183 0 c-317 0 -588 31 -752 86 -290
96 -416 260 -440 572 l-8 92 -308 0 -309 0 0 -74 c0 -98 24 -280 51 -381 105
-401 384 -646 871 -764 237 -57 436 -79 816 -88 l262 -6 0 -119 0 -118 1750 0
1750 0 0 3500 0 3500 -1750 0 -1750 0 0 -299z m1809 17 c5 -18 51 -163 101
-322 50 -158 90 -289 88 -291 -23 -18 -330 -77 -492 -95 -93 -10 -540 -29
-686 -30 l-65 0 97 -53 c138 -77 247 -158 339 -254 206 -214 299 -461 299
-787 -1 -425 -145 -779 -424 -1044 -238 -224 -565 -364 -948 -404 l-118 -12 0
-346 0 -347 278 -6 c293 -6 409 -19 587 -63 193 -49 395 -141 547 -251 93 -67
237 -214 293 -298 159 -242 209 -518 146 -820 -107 -514 -546 -856 -1273 -989
-160 -30 -397 -56 -503 -56 l-75 0 0 274 0 275 53 5 c28 2 108 10 177 16 426
39 732 170 860 371 105 162 119 393 35 560 -56 109 -189 220 -335 278 -171 68
-302 90 -582 98 l-208 6 0 298 0 297 -317 5 c-343 4 -388 10 -498 64 -232 115
-247 417 -31 649 l63 68 74 -21 c41 -12 112 -29 159 -38 105 -20 391 -37 482
-28 l68 6 2 230 3 230 85 17 c175 36 308 106 425 224 87 89 139 170 185 287
65 169 93 423 71 641 -37 358 -179 592 -436 719 -79 39 -251 89 -306 89 l-29
0 0 -989 0 -988 -87 -7 c-98 -8 -272 5 -378 28 -450 96 -698 412 -722 916 -10
220 25 407 107 575 100 206 247 335 470 413 130 45 249 62 442 62 l168 0 0
258 0 259 213 7 c558 17 943 93 1382 270 99 40 185 74 192 75 6 0 16 -14 22
-31z"/>
</g>
</svg>
